<?xml version="1.0" encoding="UTF-8" standalone="no"?>
<!DOCTYPE svg PUBLIC "-//W3C//DTD SVG 1.1//EN" "http://www.w3.org/Graphics/SVG/1.1/DTD/svg11.dtd">
<!-- Generated by Microsoft Visio, SVG Export IoT-Framework.svg Page-1 -->
<svg xmlns="http://www.w3.org/2000/svg" xmlns:xlink="http://www.w3.org/1999/xlink" xmlns:ev="http://www.w3.org/2001/xml-events"
		xmlns:v="http://schemas.microsoft.com/visio/2003/SVGExtensions/" width="9.85938in" height="3.74859in"
		viewBox="0 0 709.875 269.898" xml:space="preserve" color-interpolation-filters="sRGB" class="st19">
	<v:documentProperties v:langID="1033" v:viewMarkup="false"/>

	<style type="text/css">
	<![CDATA[
		.st1 {visibility:visible}
		.st2 {fill:#5b9bd5;fill-opacity:0.25;filter:url(#filter_2);stroke:#5b9bd5;stroke-opacity:0.25}
		.st3 {fill:#dbdbdb;stroke:#40709c;stroke-width:0.75}
		.st4 {fill:#0c0c0c;font-family:Calibri;font-size:1.16666em}
		.st5 {fill:#5b9bd5;fill-opacity:0.22;filter:url(#filter_2);stroke:#5b9bd5;stroke-opacity:0.22}
		.st6 {fill:#5b9bd5;stroke:#c7c8c8;stroke-width:0.25}
		.st7 {fill:#feffff;font-family:Calibri;font-size:0.833336em}
		.st8 {font-size:1em}
		.st9 {fill:#ffffff}
		.st10 {stroke:#5b9bd5;stroke-width:0.75}
		.st11 {fill:#5b9bd5;font-family:Calibri;font-size:0.833336em}
		.st12 {marker-end:url(#mrkr4-56);stroke:#5b9bd5;stroke-linecap:round;stroke-linejoin:round;stroke-width:1}
		.st13 {fill:#5b9bd5;fill-opacity:1;stroke:#5b9bd5;stroke-opacity:1;stroke-width:0.28409090909091}
		.st14 {fill:#ffffff;stroke:#5b9bd5;stroke-width:0.75}
		.st15 {marker-end:url(#mrkr4-56);stroke:#5b9bd5;stroke-dasharray:7,5;stroke-linecap:round;stroke-linejoin:round;stroke-width:1}
		.st16 {marker-end:url(#mrkr5-74);marker-start:url(#mrkr5-72);stroke:#5b9bd5;stroke-linecap:round;stroke-linejoin:round;stroke-width:1}
		.st17 {fill:#70ad47;fill-opacity:0.22;filter:url(#filter_2);stroke:#70ad47;stroke-opacity:0.22}
		.st18 {fill:#70ad47;stroke:#c7c8c8;stroke-width:0.25}
		.st19 {fill:none;fill-rule:evenodd;font-size:12px;overflow:visible;stroke-linecap:square;stroke-miterlimit:3}
	]]>
	</style>

	<defs id="Markers">
		<g id="lend4">
			<path d="M 2 1 L 0 0 L 2 -1 L 2 1 " style="stroke:none"/>
		</g>
		<marker id="mrkr4-56" class="st13" v:arrowType="4" v:arrowSize="2" v:setback="7.04" refX="-7.04" orient="auto"
				markerUnits="strokeWidth" overflow="visible">
			<use xlink:href="#lend4" transform="scale(-3.52,-3.52) "/>
		</marker>
		<g id="lend5">
			<path d="M 2 1 L 0 0 L 1.98117 -0.993387 C 1.67173 -0.364514 1.67301 0.372642 1.98465 1.00043 " style="stroke:none"/>
		</g>
		<marker id="mrkr5-72" class="st13" v:arrowType="5" v:arrowSize="2" v:setback="5.8" refX="5.8" orient="auto"
				markerUnits="strokeWidth" overflow="visible">
			<use xlink:href="#lend5" transform="scale(3.52) "/>
		</marker>
		<marker id="mrkr5-74" class="st13" v:arrowType="5" v:arrowSize="2" v:setback="6.16" refX="-6.16" orient="auto"
				markerUnits="strokeWidth" overflow="visible">
			<use xlink:href="#lend5" transform="scale(-3.52,-3.52) "/>
		</marker>
	</defs>
	<defs id="Filters">
		<filter id="filter_2">
			<feGaussianBlur stdDeviation="2"/>
		</filter>
	</defs>
	<g v:mID="0" v:index="1" v:groupContext="foregroundPage">
		<title>Page-1</title>
		<v:pageProperties v:drawingScale="1" v:pageScale="1" v:drawingUnits="0" v:shadowOffsetX="9" v:shadowOffsetY="-9"/>
		<v:layer v:name="Connector" v:index="0"/>
		<g id="group2-1" transform="translate(272.928,1.4022) rotate(90)" v:mID="2" v:groupContext="group">
			<v:userDefs>
				<v:ud v:nameU="visVersion" v:prompt="" v:val="VT0(15):26"/>
			</v:userDefs>
			<title>Can</title>
			<desc>D-Bus</desc>
			<g id="shape3-2" v:mID="3" v:groupContext="shape">
				<title>Sheet.3</title>
				<v:userDefs>
					<v:ud v:nameU="ControlHalfHeight" v:prompt="" v:val="VT0(0.125):1"/>
					<v:ud v:nameU="FillForegnd" v:prompt="" v:val="VT5(1)"/>
					<v:ud v:nameU="ControlHalfHeight" v:prompt="" v:val="VT0(0.15983606557377):1"/>
					<v:ud v:nameU="FillForegnd" v:prompt="" v:val="VT5(#dbdbdb)"/>
				</v:userDefs>
				<g id="shadow3-3" v:groupContext="shadow" v:shadowOffsetX="0.345598" v:shadowOffsetY="-1.97279" v:shadowType="1"
						transform="matrix(1,0,0,1,1.97279,-0.345598)" class="st1">
					<path d="M0 258.39 A22.5 11.5082 -180 1 0 45 258.39 L45 -420.59 L0 -420.59 L0 258.39 Z" class="st2"/>
				</g>
				<path d="M0 258.39 A22.5 11.5082 -180 1 0 45 258.39 L45 -420.59 L0 -420.59 L0 258.39 Z" class="st3"/>
			</g>
			<g id="shape2-7" v:mID="2" v:groupContext="groupContent">
				<v:textBlock v:margins="rect(4,4,4,4)"/>
				<v:textRect cx="22.5" cy="-81.1018" width="45" height="702" transform="rotate(-90)"/>
				<g id="shadow2-8" v:groupContext="shadow" v:shadowOffsetX="0.345598" v:shadowOffsetY="-1.97279" v:shadowType="1"
						transform="matrix(1,0,0,1,1.97279,-0.345598)" class="st1">
					<ellipse cx="22.5" cy="-420.594" rx="22.5" ry="11.5082" class="st2"/>
				</g>
				<ellipse cx="22.5" cy="-420.594" rx="22.5" ry="11.5082" class="st3"/>
				<text x="64.43" y="26.7" transform="rotate(-90)" class="st4" v:langID="1033"><v:paragraph v:horizAlign="1"/><v:tabList/>D-Bus</text>			</g>
		</g>
		<g id="shape5-13" v:mID="5" v:groupContext="shape" transform="translate(30.0294,-106.496)">
			<title>Square</title>
			<desc>DeviceHive BLE</desc>
			<v:userDefs>
				<v:ud v:nameU="visVersion" v:val="VT0(15):26"/>
			</v:userDefs>
			<v:textBlock v:margins="rect(4,4,4,4)"/>
			<v:textRect cx="45" cy="224.898" width="90" height="90"/>
			<g id="shadow5-14" v:groupContext="shadow" v:shadowOffsetX="0.345598" v:shadowOffsetY="-1.97279" v:shadowType="1"
					transform="matrix(1,0,0,1,0.345598,1.97279)" class="st1">
				<rect x="0" y="179.898" width="90" height="90" class="st5"/>
			</g>
			<rect x="0" y="179.898" width="90" height="90" class="st6"/>
			<text x="22.42" y="221.9" class="st7" v:langID="1033"><v:paragraph v:horizAlign="1"/><v:tabList/>DeviceHive<v:newlineChar/><tspan
						x="37.74" dy="1.2em" class="st8">BLE</tspan></text>		</g>
		<g id="shape6-20" v:mID="6" v:groupContext="shape" transform="translate(147.029,-106.496)">
			<title>Square.6</title>
			<desc>DeviceHive EnOcean</desc>
			<v:userDefs>
				<v:ud v:nameU="visVersion" v:val="VT0(15):26"/>
			</v:userDefs>
			<v:textBlock v:margins="rect(4,4,4,4)"/>
			<v:textRect cx="45" cy="224.898" width="90" height="90"/>
			<g id="shadow6-21" v:groupContext="shadow" v:shadowOffsetX="0.345598" v:shadowOffsetY="-1.97279" v:shadowType="1"
					transform="matrix(1,0,0,1,0.345598,1.97279)" class="st1">
				<rect x="0" y="179.898" width="90" height="90" class="st5"/>
			</g>
			<rect x="0" y="179.898" width="90" height="90" class="st6"/>
			<text x="22.42" y="221.9" class="st7" v:langID="1033"><v:paragraph v:horizAlign="1"/><v:tabList/>DeviceHive <tspan
						x="27" dy="1.2em" class="st8">EnOcean</tspan></text>		</g>
		<g id="shape7-27" v:mID="7" v:groupContext="shape" transform="translate(264.029,-106.496)">
			<title>Square.7</title>
			<desc>DeviceHive GPIO</desc>
			<v:userDefs>
				<v:ud v:nameU="visVersion" v:val="VT0(15):26"/>
			</v:userDefs>
			<v:textBlock v:margins="rect(4,4,4,4)"/>
			<v:textRect cx="45" cy="224.898" width="90" height="90"/>
			<g id="shadow7-28" v:groupContext="shadow" v:shadowOffsetX="0.345598" v:shadowOffsetY="-1.97279" v:shadowType="1"
					transform="matrix(1,0,0,1,0.345598,1.97279)" class="st1">
				<rect x="0" y="179.898" width="90" height="90" class="st5"/>
			</g>
			<rect x="0" y="179.898" width="90" height="90" class="st6"/>
			<text x="22.42" y="221.9" class="st7" v:langID="1033"><v:paragraph v:horizAlign="1"/><v:tabList/>DeviceHive<v:newlineChar/><tspan
						x="34.69" dy="1.2em" class="st8">GPIO</tspan></text>		</g>
		<g id="shape8-34" v:mID="8" v:groupContext="shape" transform="translate(381.029,-106.496)">
			<title>Square.8</title>
			<desc>DeviceHive Cloud</desc>
			<v:userDefs>
				<v:ud v:nameU="visVersion" v:val="VT0(15):26"/>
			</v:userDefs>
			<v:textBlock v:margins="rect(4,4,4,4)"/>
			<v:textRect cx="45" cy="224.898" width="90" height="90"/>
			<g id="shadow8-35" v:groupContext="shadow" v:shadowOffsetX="0.345598" v:shadowOffsetY="-1.97279" v:shadowType="1"
					transform="matrix(1,0,0,1,0.345598,1.97279)" class="st1">
				<rect x="0" y="179.898" width="90" height="90" class="st5"/>
			</g>
			<rect x="0" y="179.898" width="90" height="90" class="st6"/>
			<text x="22.42" y="221.9" class="st7" v:langID="1033"><v:paragraph v:horizAlign="1"/><v:tabList/>DeviceHive<v:newlineChar/><tspan
						x="33.3" dy="1.2em" class="st8">Cloud</tspan></text>		</g>
		<g id="shape9-41" v:mID="9" v:groupContext="shape" transform="translate(381.029,-0.74604)">
			<title>Cloud</title>
			<desc>DeviceHive Server</desc>
			<v:userDefs>
				<v:ud v:nameU="visVersion" v:prompt="" v:val="VT0(15):26"/>
			</v:userDefs>
			<v:textBlock v:margins="rect(4,4,4,4)"/>
			<v:textRect cx="54" cy="233.898" width="108" height="72"/>
			<path d="M5.31 240.43 A8.52891 9.56618 0 0 1 9.41 222.05 A17.2957 19.3991 0 0 1 34.51 206.55 A19.8602 22.2756 0 0 1 56.01
						 203.1 A12.4541 13.9688 0 0 1 74.44 201.94 A14.1793 15.9037 0 0 1 96.98 207.69 A10.1386 11.3712 0 0 1 105.17
						 223.78 A12.5579 14.0847 0 0 1 94.93 246.75 A15.8428 17.769 0 0 1 72.4 258.23 A18.6801 20.9512 0 0 1 41.68
						 262.84 A23.6794 26.5583 0 0 1 15.04 258.23 A9.342 10.4782 0 0 1 5.31 240.43 Z" class="st9"/>
			<path d="M5.31 240.43 A8.52891 9.56618 0 0 1 9.41 222.05 A17.2957 19.3991 0 0 1 34.51 206.55 A19.8602 22.2756 0 0 1 56.01
						 203.1 A12.4541 13.9688 0 0 1 74.44 201.94 A14.1793 15.9037 0 0 1 96.98 207.69 A10.1386 11.3712 0 0 1 105.17
						 223.78 A12.5579 14.0847 0 0 1 94.93 246.75 A15.8428 17.769 0 0 1 72.4 258.23 A18.6801 20.9512 0 0 1 41.68
						 262.84 A23.6794 26.5583 0 0 1 15.04 258.23 A9.342 10.4782 0 0 1 5.31 240.43" class="st10"/>
			<path d="M10.94 241 A8.50534 9.53974 0 0 1 5.31 240.43" class="st10"/>
			<path d="M40.13 259.96 A8.54237 9.58127 -180 0 0 41.68 262.84" class="st10"/>
			<path d="M73.17 254.79 A6.89577 7.73442 0 0 1 72.4 258.23" class="st10"/>
			<path d="M88.79 237.56 A7.2359 8.11591 0 0 1 94.93 246.75" class="st10"/>
			<path d="M102.1 227.22 A6.60605 7.40946 -180 0 0 105.17 223.78" class="st10"/>
			<path d="M37.57 208.84 A10.1871 11.4257 -180 0 0 34.51 206.55" class="st10"/>
			<text x="17.27" y="236.9" class="st11" v:langID="1033"><v:paragraph v:horizAlign="1"/><v:tabList/>DeviceHive Server</text>		</g>
		<g id="shape10-51" v:mID="10" v:groupContext="shape" v:layerMember="0" transform="translate(435.002,-106.496)">
			<title>Dynamic connector</title>
			<path d="M-8.97 269.9 L-9.02 299.92" class="st12"/>
		</g>
		<g id="shape11-57" v:mID="11" v:groupContext="shape" transform="translate(30.0294,-16.496)">
			<title>Rectangle</title>
			<desc>Bluetooth LE Peripherial</desc>
			<v:userDefs>
				<v:ud v:nameU="visVersion" v:val="VT0(15):26"/>
			</v:userDefs>
			<v:textBlock v:margins="rect(4,4,4,4)"/>
			<v:textRect cx="45" cy="249.648" width="90" height="40.5"/>
			<rect x="0" y="229.398" width="90" height="40.5" class="st14"/>
			<text x="19.09" y="246.65" class="st11" v:langID="1033"><v:paragraph v:horizAlign="1"/><v:tabList/>Bluetooth LE <tspan
						x="22.86" dy="1.2em" class="st8">Peripherial</tspan></text>		</g>
		<g id="shape12-61" v:mID="12" v:groupContext="shape" v:layerMember="0" transform="translate(66.0294,-106.496)">
			<title>Dynamic connector.12</title>
			<path d="M9 269.9 L9 312.36" class="st15"/>
		</g>
		<g id="shape13-66" v:mID="13" v:groupContext="shape" v:layerMember="0" transform="translate(66.0294,-196.496)">
			<title>Dynamic connector.13</title>
			<path d="M9 264.1 L9 263.74 L9 249.06" class="st16"/>
		</g>
		<g id="shape14-75" v:mID="14" v:groupContext="shape" v:layerMember="0" transform="translate(183.029,-196.496)">
			<title>Dynamic connector.14</title>
			<path d="M9 264.1 L9 263.74 L9 249.06" class="st16"/>
		</g>
		<g id="shape15-82" v:mID="15" v:groupContext="shape" v:layerMember="0" transform="translate(300.029,-196.496)">
			<title>Dynamic connector.15</title>
			<path d="M9 264.1 L9 263.74 L9 249.06" class="st16"/>
		</g>
		<g id="shape16-89" v:mID="16" v:groupContext="shape" v:layerMember="0" transform="translate(417.029,-196.496)">
			<title>Dynamic connector.16</title>
			<path d="M9 264.1 L9 263.74 L9 249.06" class="st16"/>
		</g>
		<g id="shape17-96" v:mID="17" v:groupContext="shape" transform="translate(147.029,-16.496)">
			<title>Rectangle.17</title>
			<desc>Bluetooth LE Peripherial</desc>
			<v:userDefs>
				<v:ud v:nameU="visVersion" v:val="VT0(15):26"/>
			</v:userDefs>
			<v:textBlock v:margins="rect(4,4,4,4)"/>
			<v:textRect cx="45" cy="249.648" width="90" height="40.5"/>
			<rect x="0" y="229.398" width="90" height="40.5" class="st14"/>
			<text x="19.09" y="246.65" class="st11" v:langID="1033"><v:paragraph v:horizAlign="1"/><v:tabList/>Bluetooth LE <tspan
						x="22.86" dy="1.2em" class="st8">Peripherial</tspan></text>		</g>
		<g id="shape18-100" v:mID="18" v:groupContext="shape" v:layerMember="0" transform="translate(183.029,-106.496)">
			<title>Dynamic connector.18</title>
			<path d="M9 269.9 L9 312.36" class="st15"/>
		</g>
		<g id="shape19-105" v:mID="19" v:groupContext="shape" transform="translate(264.029,-16.496)">
			<title>Rectangle.19</title>
			<desc>GPIO Pins</desc>
			<v:userDefs>
				<v:ud v:nameU="visVersion" v:val="VT0(15):26"/>
			</v:userDefs>
			<v:textBlock v:margins="rect(4,4,4,4)"/>
			<v:textRect cx="45" cy="249.648" width="90" height="40.5"/>
			<rect x="0" y="229.398" width="90" height="40.5" class="st14"/>
			<text x="25.25" y="252.65" class="st11" v:langID="1033"><v:paragraph v:horizAlign="1"/><v:tabList/>GPIO Pins</text>		</g>
		<g id="shape20-108" v:mID="20" v:groupContext="shape" v:layerMember="0" transform="translate(300.029,-106.496)">
			<title>Dynamic connector.20</title>
			<path d="M9 269.9 L9 312.36" class="st12"/>
		</g>
		<g id="shape22-113" v:mID="22" v:groupContext="shape" transform="translate(498.404,-106.496)">
			<title>Square.22</title>
			<desc>Application B</desc>
			<v:userDefs>
				<v:ud v:nameU="visVersion" v:val="VT0(15):26"/>
			</v:userDefs>
			<v:textBlock v:margins="rect(4,4,4,4)"/>
			<v:textRect cx="45" cy="224.898" width="90" height="90"/>
			<g id="shadow22-114" v:groupContext="shadow" v:shadowOffsetX="0.345598" v:shadowOffsetY="-1.97279" v:shadowType="1"
					transform="matrix(1,0,0,1,0.345598,1.97279)" class="st1">
				<rect x="0" y="179.898" width="90" height="90" class="st17"/>
			</g>
			<rect x="0" y="179.898" width="90" height="90" class="st18"/>
			<text x="18.11" y="227.9" class="st7" v:langID="1033"><v:paragraph v:horizAlign="1"/><v:tabList/>Application B</text>		</g>
		<g id="shape23-119" v:mID="23" v:groupContext="shape" transform="translate(616.154,-106.496)">
			<title>Square.23</title>
			<desc>Application B</desc>
			<v:userDefs>
				<v:ud v:nameU="visVersion" v:val="VT0(15):26"/>
			</v:userDefs>
			<v:textBlock v:margins="rect(4,4,4,4)"/>
			<v:textRect cx="45" cy="224.898" width="90" height="90"/>
			<g id="shadow23-120" v:groupContext="shadow" v:shadowOffsetX="0.345598" v:shadowOffsetY="-1.97279" v:shadowType="1"
					transform="matrix(1,0,0,1,0.345598,1.97279)" class="st1">
				<rect x="0" y="179.898" width="90" height="90" class="st17"/>
			</g>
			<rect x="0" y="179.898" width="90" height="90" class="st18"/>
			<text x="18.11" y="227.9" class="st7" v:langID="1033"><v:paragraph v:horizAlign="1"/><v:tabList/>Application B</text>		</g>
		<g id="shape24-125" v:mID="24" v:groupContext="shape" v:layerMember="0" transform="translate(534.404,-196.496)">
			<title>Dynamic connector.24</title>
			<path d="M9 264.1 L9 263.74 L9 249.06" class="st16"/>
		</g>
		<g id="shape25-132" v:mID="25" v:groupContext="shape" v:layerMember="0" transform="translate(652.154,-196.496)">
			<title>Dynamic connector.25</title>
			<path d="M9 264.1 L9 263.74 L9 249.06" class="st16"/>
		</g>
	</g>
</svg>
